<?xml version="1.0" encoding="utf-8"?>
<!-- Generator: Adobe Illustrator 23.0.3, SVG Export Plug-In . SVG Version: 6.00 Build 0)  -->
<svg version="1.1" id="Layer_1" xmlns="http://www.w3.org/2000/svg" xmlns:xlink="http://www.w3.org/1999/xlink" x="0px" y="0px"
	 viewBox="0 0 26 24" style="enable-background:new 0 0 26 24;" xml:space="preserve">
<style type="text/css">
	.st0{fill-rule:evenodd;clip-rule:evenodd;fill:#EF5B70;}
</style>
<path class="st0" d="M25.9,6.3l-4.4,10.3c-0.2,0.4-0.5,0.6-0.9,0.6H8.6c-0.4,0-0.8-0.3-0.9-0.7L3.7,2H1C0.4,2,0,1.5,0,1s0.4-1,1-1
	h3.5c0.4,0,0.8,0.3,0.9,0.7l3.9,14.4H20l3.6-8.3H11.7c-0.5,0-1-0.4-1-1s0.4-1,1-1H25c0.3,0,0.6,0.2,0.8,0.4C26,5.6,26,6,25.9,6.3z
	 M7.7,19.6c1.2,0,2.2,1,2.2,2.2c0,1.2-1,2.2-2.2,2.2s-2.2-1-2.2-2.2S6.5,19.6,7.7,19.6z M21.1,19.6c1.2-0.1,2.2,0.8,2.3,2.1
	c0,0.6-0.1,1.2-0.5,1.6C22.6,23.7,22,24,21.4,24c0,0-0.1,0-0.2,0c-1.1,0-2.1-0.9-2.2-2.1C19,20.7,19.9,19.6,21.1,19.6z"/>
</svg>
