<?xml version="1.0" encoding="utf-8"?>
<!-- Generator: Adobe Illustrator 23.0.3, SVG Export Plug-In . SVG Version: 6.00 Build 0)  -->
<svg version="1.1" id="Layer_1" xmlns="http://www.w3.org/2000/svg" xmlns:xlink="http://www.w3.org/1999/xlink" x="0px" y="0px"
	 viewBox="0 0 23 22" style="enable-background:new 0 0 23 22;" xml:space="preserve">
<style type="text/css">
	.st0{fill-rule:evenodd;clip-rule:evenodd;fill:#FFFFFF;stroke:#FFFFFF;}
</style>
<path class="st0" d="M11.5,18.5c-0.2,0-0.3-0.1-0.4-0.2l-6.4-6.9c0,0,0,0,0,0c-0.8-0.9-1.2-2-1.2-3.2S3.9,5.8,4.7,5l0.1-0.1
	c0.8-0.9,1.8-1.4,3-1.4c1.1,0,2.2,0.5,3,1.4l0.8,0.8l0.8-0.8c0.8-0.9,1.8-1.4,3-1.4c1.1,0,2.2,0.5,3,1.4L18.3,5
	c0.8,0.9,1.2,2,1.2,3.2s-0.4,2.4-1.2,3.2c0,0,0,0,0,0l-6.4,6.9C11.8,18.4,11.6,18.5,11.5,18.5z M5.5,10.7l6,6.5l6-6.5
	c1.2-1.4,1.2-3.6,0-5l-0.1-0.1c-0.6-0.6-1.4-1-2.2-1c-0.8,0-1.6,0.4-2.2,1l-1.2,1.3c-0.1,0.1-0.2,0.2-0.4,0.2S11.2,7,11.1,6.9
	L9.9,5.6c-0.6-0.6-1.4-1-2.2-1c-0.8,0-1.6,0.4-2.2,1L5.5,5.7C4.3,7.1,4.3,9.3,5.5,10.7z"/>
</svg>
