<?xml version="1.0" encoding="utf-8"?>
<!-- Generator: Adobe Illustrator 23.0.3, SVG Export Plug-In . SVG Version: 6.00 Build 0)  -->
<svg version="1.1" id="Layer_1" xmlns="http://www.w3.org/2000/svg" xmlns:xlink="http://www.w3.org/1999/xlink" x="0px" y="0px"
	 viewBox="0 0 22 12" style="enable-background:new 0 0 22 12;" xml:space="preserve">
<style type="text/css">
	.st0{fill-rule:evenodd;clip-rule:evenodd;fill:#FFFFFF;}
</style>
<path class="st0" d="M21.7,7.2c-0.4-0.4-1-0.4-1.4,0L19,8.6V1c0-0.6-0.4-1-1-1H8.6c-0.5,0-1,0.4-1,1c0,0.6,0.4,1,1,1h8.5v6.6
	l-1.4-1.4c-0.4-0.4-1-0.4-1.4,0c-0.4,0.4-0.4,1,0,1.4l3,3.1c0.2,0.2,0.4,0.3,0.7,0.3s0.5-0.1,0.7-0.3l3-3.1
	C22.1,8.2,22.1,7.6,21.7,7.2z M13.4,10H4.9V3.4l1.4,1.4C6.5,5,6.7,5.1,7,5.1c0.2,0,0.5-0.1,0.7-0.3c0.4-0.4,0.4-1,0-1.4l-3-3.1
	C4.5,0.1,4.2,0,4,0S3.5,0.1,3.3,0.3l-3,3.1c-0.4,0.4-0.4,1,0,1.4c0.4,0.4,1,0.4,1.4,0L3,3.4V11c0,0.6,0.4,1,1,1h9.4c0.5,0,1-0.4,1-1
	C14.4,10.4,13.9,10,13.4,10z"/>
</svg>
